<svg width="176" height="54" viewBox="0 0 176 54" fill="none" xmlns="http://www.w3.org/2000/svg">
<path d="M158.356 21.0647C157.183 21.0645 156.012 21.1737 154.862 21.3907C154.434 19.3972 153.527 17.5202 152.21 15.9009C150.893 14.2817 149.199 12.9623 147.257 12.0419C145.314 11.1216 143.173 10.6243 140.995 10.5875C138.817 10.5507 136.659 10.9753 134.682 11.8293C131.057 2.51105 120.025 -2.3005 110.04 1.08229C100.056 4.46508 94.901 14.7628 98.5257 24.0809C89.7798 24.3387 82.8709 31.0954 83.0018 39.2611C83.1334 47.4275 90.2566 53.9869 99.0075 54H158.356C168.1 54 176 46.6274 176 37.5323C176 28.4373 168.1 21.0647 158.356 21.0647Z" fill="#D5D3CF"/>
</svg>
