<svg width="176" height="105" viewBox="0 0 176 105" fill="none" xmlns="http://www.w3.org/2000/svg">
<path d="M33.391 40.9591C35.6116 40.9588 37.8267 41.1711 40.0032 41.5929C40.8133 37.7167 42.5293 34.0671 45.0223 30.9185C47.5152 27.7699 50.7202 25.2044 54.3962 23.4149C58.0722 21.6254 62.1235 20.6584 66.2453 20.5868C70.3672 20.5152 74.4523 21.3408 78.1934 23.0014C85.053 4.88259 105.932 -4.4732 124.827 2.10445C143.722 8.68211 153.478 28.7054 146.618 46.8239C163.169 47.3253 176.244 60.4632 175.997 76.341C175.748 92.2202 162.267 104.975 145.706 105H33.391C14.9508 105 -3.28649e-06 90.6643 -3.28649e-06 72.9795C-3.28649e-06 55.2948 14.9508 40.9591 33.391 40.9591Z" fill="#D5D3CF"/>
</svg>
