<svg width="343" height="343" viewBox="0 0 343 343" fill="none" xmlns="http://www.w3.org/2000/svg">
<circle cx="171.5" cy="171.5" r="165.069" stroke="#D5D3CF" stroke-width="12.8625"/>
<path fill-rule="evenodd" clip-rule="evenodd" d="M171.5 343C266.217 343 343 266.217 343 171.5C343 76.7832 266.217 0 171.5 0C76.7832 0 0 76.7832 0 171.5C0 266.217 76.7832 343 171.5 343ZM81.2727 111.757C83.6159 109.414 87.4148 109.414 89.758 111.757C89.8569 111.856 90.0041 112.013 90.1985 112.221L90.1994 112.222L90.1997 112.222C91.458 113.564 94.6905 117.013 99.5977 120.47C105.298 124.487 112.586 128 120.515 128C128.445 128 135.733 124.487 141.433 120.47C146.34 117.013 149.573 113.564 150.831 112.222C151.026 112.014 151.174 111.856 151.273 111.757C153.616 109.414 157.415 109.414 159.758 111.757C162.101 114.101 162.101 117.899 159.758 120.243C159.978 120.023 158.233 121.908 156.485 123.576C154.509 125.461 151.748 127.882 148.345 130.28C141.627 135.013 131.916 140 120.515 140C109.115 140 99.4032 135.013 92.6855 130.28C89.2829 127.882 86.5221 125.461 84.5461 123.576C82.7981 121.908 81.0531 120.023 81.2727 120.243C78.9296 117.899 78.9296 114.101 81.2727 111.757ZM185.758 111.757C183.415 109.414 179.616 109.414 177.273 111.757C174.93 114.101 174.93 117.9 177.273 120.243C177.053 120.023 178.798 121.908 180.546 123.576C182.522 125.461 185.283 127.882 188.686 130.28C195.403 135.013 205.115 140 216.515 140C227.916 140 237.627 135.013 244.345 130.28C247.748 127.882 250.509 125.461 252.485 123.576C254.233 121.908 255.978 120.023 255.758 120.243C258.101 117.9 258.101 114.101 255.758 111.757C253.415 109.414 249.616 109.414 247.273 111.757C247.174 111.856 247.026 112.014 246.832 112.221L246.831 112.222C245.573 113.564 242.34 117.013 237.433 120.47C231.733 124.487 224.445 128 216.515 128C208.586 128 201.298 124.487 195.598 120.47C190.691 117.013 187.458 113.564 186.2 112.222C186.005 112.014 185.857 111.857 185.758 111.757ZM59.8493 134.777C59.174 132.1 56.4559 130.476 53.7783 131.152C51.1008 131.827 49.4777 134.545 50.153 137.223C54.0714 152.758 67.835 171.162 88.3987 185.593C109.12 200.134 137.223 211 170.512 211C236.998 211 278.188 167.598 285.849 137.223C286.525 134.545 284.902 131.827 282.224 131.152C279.547 130.476 276.828 132.1 276.153 134.777C269.69 160.402 232.743 201 170.512 201C139.443 201 113.322 190.866 94.1429 177.407C74.8062 163.838 62.9935 147.242 59.8493 134.777Z" fill="#D5D3CF"/>
</svg>
